<?xml version="1.0" standalone="no"?>
<!DOCTYPE svg PUBLIC "-//W3C//DTD SVG 20010904//EN"
 "http://www.w3.org/TR/2001/REC-SVG-20010904/DTD/svg10.dtd">
<svg version="1.0" xmlns="http://www.w3.org/2000/svg"
 width="512.000000pt" height="512.000000pt" viewBox="0 0 512.000000 512.000000"
 preserveAspectRatio="xMidYMid meet">

<g transform="translate(0.000000,512.000000) scale(0.100000,-0.100000)"
fill="#000000" stroke="none">
<path d="M2321 5110 c-868 -84 -1644 -610 -2037 -1382 -139 -273 -221 -536
-266 -853 -20 -140 -17 -504 6 -660 39 -278 121 -541 247 -794 249 -502 647
-900 1150 -1150 815 -406 1779 -350 2539 147 297 194 579 482 771 788 74 116
184 342 234 478 51 138 110 376 131 531 23 157 26 521 6 660 -59 415 -191 769
-410 1099 -92 140 -185 254 -315 385 -399 403 -895 653 -1462 737 -122 18
-466 26 -594 14z m1587 -1392 l3 -148 -1341 0 -1340 0 0 150 0 150 1338 -2
1337 -3 3 -147z m-218 -998 l0 -560 -135 0 -134 0 -11 -37 c-5 -21 -48 -166
-94 -323 l-83 -285 334 -3 334 -2 -3 -128 -3 -127 -1340 0 -1340 0 -3 128 -3
127 331 0 c258 0 330 3 329 13 0 6 -44 152 -97 322 l-98 310 -117 3 -117 3 0
559 0 560 1125 0 1125 0 0 -560z"/>
<path d="M1890 2720 l0 -270 678 2 677 3 3 268 2 267 -680 0 -680 0 0 -270z"/>
<path d="M2060 2143 c0 -4 44 -148 97 -320 l97 -313 299 2 299 3 78 265 c43
146 85 289 93 318 l16 52 -490 0 c-269 0 -489 -3 -489 -7z"/>
</g>
</svg>
